HIERARCHY
ROOT joint_0
{
	OFFSET 0.000000 0.000000 0.000000
	CHANNELS 6 Xposition Yposition Zposition Zrotation Yrotation Xrotation 
	JOINT joint_1
	{
		OFFSET 17.107422 0.519409 105.452026
		CHANNELS 3 Zrotation Yrotation Xrotation
		JOINT joint_2
		{
			OFFSET 6.110352 -1.434082 97.381958
			CHANNELS 3 Zrotation Yrotation Xrotation
			JOINT joint_3
			{
				OFFSET 6.305908 -1.739990 97.255005
				CHANNELS 3 Zrotation Yrotation Xrotation
				JOINT joint_4
				{
					OFFSET 22.074707 -0.492493 131.077026
					CHANNELS 3 Zrotation Yrotation Xrotation
					JOINT joint_5
					{
						OFFSET 34.162842 2.248718 78.700928
						CHANNELS 3 Zrotation Yrotation Xrotation
						End Site
						{
							OFFSET 0.000000 0.000000 0.000000
						}
					}
				}
				JOINT joint_6
				{
					OFFSET 17.059082 -28.836914 72.664062
					CHANNELS 3 Zrotation Yrotation Xrotation
					JOINT joint_7
					{
						OFFSET 22.639893 -134.803833 -24.691040
						CHANNELS 3 Zrotation Yrotation Xrotation
						JOINT joint_8
						{
							OFFSET 7.301758 -32.590759 -269.966064
							CHANNELS 3 Zrotation Yrotation Xrotation
							JOINT joint_9
							{
								OFFSET 35.581055 -8.517151 -242.326965
								CHANNELS 3 Zrotation Yrotation Xrotation
								End Site
								{
									OFFSET 0.000000 0.000000 0.000000
								}
							}
						}
					}
				}
				JOINT joint_10
				{
					OFFSET 7.819092 28.232056 74.432983
					CHANNELS 3 Zrotation Yrotation Xrotation
					JOINT joint_11
					{
						OFFSET -23.457031 135.063843 -22.406982
						CHANNELS 3 Zrotation Yrotation Xrotation
						JOINT joint_12
						{
							OFFSET 17.896973 48.138672 -267.131958
							CHANNELS 3 Zrotation Yrotation Xrotation
							JOINT joint_13
							{
								OFFSET 46.526367 17.567627 -239.975037
								CHANNELS 3 Zrotation Yrotation Xrotation
								End Site
								{
									OFFSET 0.000000 0.000000 0.000000
								}
							}
						}
					}
				}
			}
		}
	}
	JOINT joint_14
	{
		OFFSET 10.553467 -100.140320 -126.306030
		CHANNELS 3 Zrotation Yrotation Xrotation
		JOINT joint_15
		{
			OFFSET -52.094238 -9.565002 -436.052002
			CHANNELS 3 Zrotation Yrotation Xrotation
			JOINT joint_16
			{
				OFFSET -55.682617 -11.310120 -462.482971
				CHANNELS 3 Zrotation Yrotation Xrotation
				JOINT joint_17
				{
					OFFSET 179.119385 -5.942566 -84.087004
					CHANNELS 3 Zrotation Yrotation Xrotation
					End Site
					{
						OFFSET 0.000000 0.000000 0.000000
					}
				}
			}
		}
	}
	JOINT joint_18
	{
		OFFSET -22.235352 101.620483 -123.583984
		CHANNELS 3 Zrotation Yrotation Xrotation
		JOINT joint_19
		{
			OFFSET -38.118408 12.306396 -437.429016
			CHANNELS 3 Zrotation Yrotation Xrotation
			JOINT joint_20
			{
				OFFSET -51.789307 8.010498 -463.006004
				CHANNELS 3 Zrotation Yrotation Xrotation
				JOINT joint_21
				{
					OFFSET 170.088135 59.632324 -83.078003
					CHANNELS 3 Zrotation Yrotation Xrotation
					End Site
					{
						OFFSET 0.000000 0.000000 0.000000
					}
				}
			}
		}
	}
}
MOTION
Frames: 13
Frame Time: 0.016667
-3115.094238 908.752869 1131.640991 3.398312 1.780497 0.583815 0.201664 2.988207 0.192629 0.156363 -0.642034 -0.135195 0.064057 0.601403 0.101233 -1.272523 -2.319564 3.516891 0.000000 0.000000 0.000000 -13.924668 16.819240 -13.627444 -10.847750 12.147187 -3.533448 -175.459365 -56.545425 -176.467608 0.000000 0.000000 0.000000 3.188217 35.209142 -0.641574 16.322343 4.742758 12.525341 173.972906 -68.382622 -167.991626 0.000000 0.000000 0.000000 -0.625529 -4.298487 -3.522334 -1.528420 16.779656 0.381838 -0.830686 -3.141236 -0.480121 0.000000 0.000000 0.000000 -0.590615 0.654903 -0.638226 -0.351674 6.634930 -1.500640 -0.611612 -1.064199 0.079090 0.000000 0.000000 0.000000 
-3109.593750 907.199219 1134.171997 3.508942 1.649504 0.821631 0.105250 3.403196 0.242263 0.023120 -0.719018 -0.173218 -0.118825 0.680093 0.081426 -1.221573 -1.945314 3.381049 0.000000 0.000000 0.000000 -14.463451 16.739422 -13.976210 -10.860484 12.038501 -3.938236 -175.226945 -56.492658 -175.812112 0.000000 0.000000 0.000000 3.734275 35.276980 -0.309114 15.896019 4.847377 11.758191 173.684006 -68.906175 -167.838592 0.000000 0.000000 0.000000 -0.434980 -5.922398 -4.156282 -1.551312 20.444743 0.982434 -0.618728 -2.696879 -0.365933 0.000000 0.000000 0.000000 -0.834495 0.766455 -0.617607 -0.575878 7.035354 -1.672863 -0.782668 -0.003128 -0.372088 0.000000 0.000000 0.000000 
-3104.788330 905.290649 1136.973999 3.256511 1.558342 0.968932 0.111075 3.822420 0.234494 -0.051941 -0.757321 -0.123382 -0.250173 0.720109 0.023920 -1.220557 -1.637940 3.353315 0.000000 0.000000 0.000000 -14.673715 16.612781 -14.275631 -11.064279 11.696436 -4.573070 -175.181823 -56.686270 -174.853659 0.000000 0.000000 0.000000 4.821053 34.650181 0.512167 15.009429 4.993999 10.494378 173.232802 -69.464456 -167.804812 0.000000 0.000000 0.000000 -0.107056 -7.928164 -4.891327 -1.453969 24.528036 1.841029 -0.227874 -2.021364 -0.164773 0.000000 0.000000 0.000000 -1.015049 0.873315 -0.539326 -0.742267 7.349738 -1.807043 -0.887558 1.154764 -0.824344 0.000000 0.000000 0.000000 
-3100.329346 902.974609 1139.701050 2.956671 1.479824 1.115296 0.152348 4.203349 0.206595 -0.119919 -0.790423 -0.052822 -0.374613 0.755257 -0.016044 -1.215681 -1.300873 3.312139 0.000000 0.000000 0.000000 -14.636537 16.518393 -14.351980 -11.353032 11.238220 -5.228491 -175.203020 -56.714075 -173.976475 0.000000 0.000000 0.000000 5.807533 33.632519 1.221355 14.142002 5.077869 9.371618 172.933560 -70.127214 -167.571624 0.000000 0.000000 0.000000 0.287992 -9.820189 -5.623213 -1.238225 28.105230 2.711720 0.318473 -1.447177 0.097551 0.000000 0.000000 0.000000 -1.161066 1.014344 -0.477767 -0.890154 7.536230 -1.894750 -0.967173 2.343432 -1.274662 0.000000 0.000000 0.000000 
-3095.969971 900.202393 1142.151978 2.788915 1.409770 1.256730 0.169429 4.504598 0.332259 -0.187727 -0.840299 -0.076717 -0.490614 0.806833 0.013670 -1.167268 -0.877889 3.171183 0.000000 0.000000 0.000000 -14.338335 16.597017 -14.052859 -11.698152 10.724203 -5.783096 -175.235334 -56.237124 -173.456052 0.000000 0.000000 0.000000 6.290166 32.301795 1.394034 13.634524 5.027619 8.915671 173.012417 -70.944041 -166.932595 0.000000 0.000000 0.000000 0.785972 -11.312680 -6.238935 -0.859064 30.689075 3.578214 1.133191 -1.597382 0.444923 0.000000 0.000000 0.000000 -1.280765 1.212561 -0.408854 -1.025110 7.552238 -1.936442 -1.031385 3.500143 -1.706590 0.000000 0.000000 0.000000 
-3091.847168 896.990784 1144.464966 2.627101 1.360745 1.348830 0.178634 4.738391 0.618084 -0.232761 -0.893710 -0.181466 -0.568799 0.866068 0.090647 -1.099283 -0.405092 2.979457 0.000000 0.000000 0.000000 -13.738974 16.812050 -13.447683 -12.117051 10.120257 -6.311836 -175.329197 -55.413790 -173.154304 0.000000 0.000000 0.000000 6.530210 30.540297 1.235954 13.311341 4.876620 8.905084 173.334178 -71.932877 -166.010730 0.000000 0.000000 0.000000 1.400181 -12.617858 -6.766532 -0.331601 32.668777 4.539981 2.225969 -2.418050 0.882788 0.000000 0.000000 0.000000 -1.361261 1.452519 -0.291352 -1.128226 7.417080 -1.936868 -1.061748 4.644879 -2.118665 0.000000 0.000000 0.000000 
-3087.993164 893.430664 1146.470947 2.507515 1.269995 1.424420 0.172747 4.962987 0.865308 -0.281843 -0.947886 -0.273751 -0.634312 0.924405 0.156928 -1.027420 0.127448 2.755252 0.000000 0.000000 0.000000 -13.142268 16.810216 -12.754909 -12.420500 9.532853 -6.731338 -175.413082 -54.641517 -172.987509 0.000000 0.000000 0.000000 6.586954 28.856082 1.009471 13.115991 4.629477 8.924134 173.716176 -72.923835 -164.917145 0.000000 0.000000 0.000000 1.791353 -13.669417 -7.200437 0.025058 33.915806 5.129570 2.978300 -3.281218 1.171965 0.000000 0.000000 0.000000 -1.418257 1.765676 -0.156736 -1.216397 7.208938 -1.907863 -1.081458 5.708658 -2.498407 0.000000 0.000000 0.000000 
-3084.436035 889.575928 1148.089966 2.470884 1.092464 1.504764 0.142794 5.214536 0.935224 -0.356409 -1.001493 -0.292241 -0.716020 0.979322 0.171008 -0.958849 0.728899 2.511226 0.000000 0.000000 0.000000 -12.789742 16.325703 -12.066234 -12.469071 9.030925 -6.948799 -175.396609 -54.146675 -172.966115 0.000000 0.000000 0.000000 6.387522 27.669190 0.863450 13.035227 4.278021 8.648842 174.066163 -73.729123 -163.628334 0.000000 0.000000 0.000000 1.736286 -14.396014 -7.530104 -0.010525 34.279213 4.997020 2.901075 -3.770911 1.123061 0.000000 0.000000 0.000000 -1.462645 2.191406 -0.019475 -1.300997 6.941367 -1.861712 -1.105463 6.665564 -2.844441 0.000000 0.000000 0.000000 
-3081.165527 885.393982 1149.392944 2.492004 0.855776 1.568983 0.087011 5.464185 0.913195 -0.439902 -1.055430 -0.274650 -0.797953 1.037928 0.152566 -0.886728 1.396169 2.243522 0.000000 0.000000 0.000000 -12.580063 15.491730 -11.285164 -12.331918 8.561762 -7.015297 -175.300129 -53.791328 -173.110371 0.000000 0.000000 0.000000 5.923307 26.769693 0.705425 13.069629 3.820577 8.260268 174.447419 -74.416887 -162.084560 0.000000 0.000000 0.000000 1.372169 -14.837701 -7.744853 -0.324529 33.808266 4.330932 2.217558 -4.099710 0.822414 0.000000 0.000000 0.000000 -1.485822 2.715180 0.142075 -1.367272 6.584968 -1.795623 -1.116866 7.541537 -3.157828 0.000000 0.000000 0.000000 
-3078.127686 880.906982 1150.202026 2.533946 0.565682 1.616861 0.029277 5.725999 0.868002 -0.506635 -1.112055 -0.249804 -0.851220 1.097348 0.124684 -0.802076 2.107872 1.950331 0.000000 0.000000 0.000000 -12.461902 14.491505 -10.601089 -12.142560 8.095173 -7.126235 -175.276460 -53.700914 -173.102122 0.000000 0.000000 0.000000 5.478324 25.856416 0.633672 13.132263 3.307871 7.981517 174.826444 -75.151316 -160.602002 0.000000 0.000000 0.000000 0.831623 -15.039969 -7.788000 -0.785461 32.751611 3.281582 1.233343 -4.311465 0.394087 0.000000 0.000000 0.000000 -1.492299 3.257596 0.312005 -1.409280 6.314274 -1.698822 -1.113462 8.222592 -3.396920 0.000000 0.000000 0.000000 
-3075.331787 876.157471 1150.477051 2.570805 0.216249 1.648724 -0.015314 6.013787 0.829992 -0.541735 -1.168896 -0.223855 -0.857328 1.152732 0.096515 -0.702527 2.865321 1.633219 0.000000 0.000000 0.000000 -12.412369 13.449165 -10.153980 -11.988580 7.606794 -7.403591 -175.433081 -54.044405 -172.747659 0.000000 0.000000 0.000000 5.255868 24.738463 0.723368 13.159878 2.773799 7.912383 175.172599 -76.053277 -159.394826 0.000000 0.000000 0.000000 0.079404 -15.020581 -7.582591 -1.404067 31.203464 1.761658 -0.023779 -4.440428 -0.154581 0.000000 0.000000 0.000000 -1.472462 3.796509 0.461113 -1.418931 6.191629 -1.533729 -1.083354 8.692991 -3.550080 0.000000 0.000000 0.000000 
-3072.798828 871.135681 1150.287964 2.630434 -0.199071 1.680368 -0.058194 6.330423 0.745314 -0.560239 -1.228917 -0.173126 -0.834207 1.203335 0.062084 -0.591887 3.680296 1.293793 0.000000 0.000000 0.000000 -12.451442 12.313938 -9.852868 -11.837506 7.090735 -7.782686 -175.712814 -54.772878 -172.155528 0.000000 0.000000 0.000000 5.137520 23.521574 0.921376 13.178794 2.201238 7.970803 175.499958 -77.072185 -158.340171 0.000000 0.000000 0.000000 -0.964001 -14.722094 -7.179088 -2.253735 28.929876 -0.235621 -1.603067 -4.306374 -0.841207 0.000000 0.000000 0.000000 -1.428745 4.363816 0.578224 -1.400958 6.149174 -1.299456 -1.028055 9.005064 -3.636432 0.000000 0.000000 0.000000 
-3070.322266 865.730530 1149.267944 2.733163 -0.638953 1.730154 -0.091963 6.650206 0.630608 -0.556982 -1.294842 -0.118932 -0.786700 1.256795 0.032690 -0.474460 4.474775 0.951045 0.000000 0.000000 0.000000 -12.493837 11.075698 -9.645969 -11.766521 6.545322 -8.266037 -176.133195 -55.524414 -171.203824 0.000000 0.000000 0.000000 5.040944 22.225417 1.142560 13.239661 1.585953 8.263927 175.839796 -78.224511 -157.538885 0.000000 0.000000 0.000000 -1.784778 -14.149969 -6.802015 -2.899304 26.188890 -1.881821 -2.723545 -3.768577 -1.321080 0.000000 0.000000 0.000000 -1.417521 4.814588 0.721940 -1.379559 6.447538 -1.124750 -1.002011 8.877803 -3.581590 0.000000 0.000000 0.000000 
